<svg width="201.77399999999997" height="210.774" xmlns="http://www.w3.org/2000/svg">
 <g>
  <title>background</title>
  <rect x="-1" y="-1" width="203.774" height="212.774" id="canvas_background" fill="none"/>
 </g>

 <g>
  <title>Layer 1</title>
  <g id="svg_1" stroke="null">
   <path d="m168.34307,37.95356c-7.30904,-7.30904 -15.48585,-13.24752 -24.30264,-17.65041c-1.91931,-0.95901 -4.25018,-0.17925 -5.20789,1.73877c-0.95771,1.91866 -0.17925,4.25018 1.73877,5.20789c8.06745,4.02887 15.56415,9.47749 22.28109,16.19443c34.16775,34.16775 34.16775,89.7624 0,123.93015s-89.7624,34.16775 -123.93015,0s-34.16775,-89.7624 0,-123.93015c16.55098,-16.55163 38.5577,-25.66674 61.9641,-25.66674c2.14386,0 3.88262,-1.73877 3.88262,-3.88262s-1.73877,-3.88262 -3.88262,-3.88262c-25.48102,0 -49.43681,9.92269 -67.45543,27.94131c-37.1949,37.1949 -37.1949,97.71661 0,134.91151c18.59777,18.59777 43.0266,27.89666 67.45608,27.89666s48.8583,-9.29889 67.45608,-27.89666c37.1949,-37.1949 37.1949,-97.71661 0,-134.91151l-0.00001,-0.00001z" id="svg_2" stroke="null"/>
   <path d="m100.88699,43.65649c-2.14386,0 -3.88262,1.73877 -3.88262,3.88262l0,115.7404c0,2.1445 1.73877,3.88262 3.88262,3.88262s3.88262,-1.73812 3.88262,-3.88262l0,-115.7404c0,-2.1445 -1.73877,-3.88262 -3.88262,-3.88262z" id="svg_3" stroke="null"/>
   <path d="m116.41749,109.29161l42.34002,0c2.14386,0 3.88262,-1.73877 3.88262,-3.88262s-1.73877,-3.88262 -3.88262,-3.88262l-42.34002,0c-2.14386,0 -3.88262,1.73877 -3.88262,3.88262s1.73812,3.88262 3.88262,3.88262z" id="svg_4" stroke="null"/>
   <path d="m43.01647,101.52636c-2.14386,0 -3.88262,1.73877 -3.88262,3.88262s1.73877,3.88262 3.88262,3.88262l41.04582,0c2.14386,0 3.88262,-1.73877 3.88262,-3.88262s-1.73877,-3.88262 -3.88262,-3.88262l-41.04582,0z" id="svg_5" stroke="null"/>
  </g>
  <g id="svg_6"/>
  <g id="svg_7"/>
  <g id="svg_8"/>
  <g id="svg_9"/>
  <g id="svg_10"/>
  <g id="svg_11"/>
  <g id="svg_12"/>
  <g id="svg_13"/>
  <g id="svg_14"/>
  <g id="svg_15"/>
  <g id="svg_16"/>
  <g id="svg_17"/>
  <g id="svg_18"/>
  <g id="svg_19"/>
  <g id="svg_20"/>
 </g>
</svg>