<svg width="483.688" height="483.688" xmlns="http://www.w3.org/2000/svg">

 <g>
  <title>background</title>
  <rect fill="none" id="canvas_background" height="602" width="802" y="-1" x="-1"/>
 </g>
 <g>
  <title>Layer 1</title>
  <g stroke="null" id="svg_1">
   <path fill="#ffffff" stroke="null" id="svg_2" d="m412.89309,140.68124c-7.58482,-9.24127 -19.09282,-14.385 -31.03673,-14.385l-259.19154,0c-7.41045,0 -14.47218,2.09236 -20.57491,5.84118l-13.25164,-46.29354c-2.17955,-7.58482 -9.06691,-12.81573 -16.91327,-12.81573l-20.139,0l-38.44718,0c-7.32327,0 -13.33882,5.92836 -13.33882,13.33882l0,1.39491c0,7.32327 5.92836,13.33882 13.33882,13.33882l50.39109,0l25.71864,90.93064l35.39582,125.45464c-20.139,5.05655 -35.04709,23.27755 -35.04709,44.89864c0,24.49809 19.09282,44.63709 43.24218,46.20636c-2.00518,5.754 -2.96418,12.11827 -2.44109,18.65691c1.74364,22.14418 19.79027,40.01645 41.93445,41.49855c26.41609,1.83082 48.47309,-19.18 48.47309,-45.16018c0,-5.23091 -0.87182,-10.20027 -2.52827,-14.90809l53.00654,0c-2.17955,6.18991 -3.05136,13.07727 -2.26673,20.139c2.44109,21.44673 20.139,38.36 41.76009,39.92927c26.41609,1.83082 48.56027,-19.09282 48.56027,-45.16018c0,-25.19555 -20.92364,-45.33454 -46.032,-45.33454l-177.06627,0c-8.631,0 -15.95427,-6.713 -16.303,-15.25682c-0.34873,-9.06691 6.88736,-16.47736 15.86709,-16.47736l26.59045,0l144.11154,0l40.53955,0c17.95945,0 33.65218,-12.29264 38.01127,-29.729l35.22145,-141.75763c3.05136,-12.20545 0.26155,-24.67245 -7.58482,-34.34964zm-98.60264,267.90972c8.19509,0 14.90809,6.713 14.90809,14.90809s-6.713,14.90809 -14.90809,14.90809s-14.90809,-6.713 -14.90809,-14.90809s6.62582,-14.90809 14.90809,-14.90809zm-138.53191,0c8.19509,0 14.90809,6.713 14.90809,14.90809s-6.713,14.90809 -14.90809,14.90809c-8.19509,0 -14.90809,-6.713 -14.90809,-14.90809c0,-8.19509 6.62582,-14.90809 14.90809,-14.90809zm-54.75018,-216.734l-6.80018,-23.975c-1.04618,-3.66164 0.43591,-6.36427 1.48209,-7.672c0.959,-1.30773 3.22573,-3.48727 6.97455,-3.48727l28.42127,0l7.75918,35.22145l-37.83691,0l0,-0.08718zm8.54382,30.33927l35.91891,0l7.14891,32.606l-33.91373,0l-9.15409,-32.606zm33.04191,93.80764c-3.92318,0 -7.41045,-2.61545 -8.45664,-6.45145l-6.88736,-24.41091l31.99573,0l6.80018,30.77518l-23.45191,0l0,0.08718zm75.93536,0l-21.44673,0l-6.80018,-30.77518l28.15973,0l0,30.77518l0.08718,0zm0,-61.20164l-34.87273,0l-7.14891,-32.606l42.02164,0l0,32.606zm0,-62.94527l-48.64745,0l-7.75918,-35.22145l56.40664,0l0,35.22145zm54.40145,124.14691l-23.975,0l0,-30.77518l30.42645,0l-6.45145,30.77518zm12.90291,-61.20164l-36.87791,0l0,-32.606l43.76527,0l-6.88736,32.606zm-36.87791,-62.94527l0,-35.22145l57.54,0l-7.41045,35.22145l-50.12954,0zm86.92027,117.52109c-0.959,3.92318 -4.44627,6.713 -8.54382,6.713l-23.36473,0l6.53864,-30.77518l31.38545,0l-6.01555,24.06218zm13.51318,-54.57582l-32.51882,0l6.88736,-32.606l33.73936,0l-8.10791,32.606zm21.62109,-87.269l-6.01555,24.23655l-34.87273,0l7.41045,-35.22145l24.934,0c3.74882,0 5.92836,2.09236 6.88736,3.40009c1.04618,1.30773 2.61545,4.01036 1.65645,7.58482z"/>
  </g>
  <g id="svg_3"/>
  <g id="svg_4"/>
  <g id="svg_5"/>
  <g id="svg_6"/>
  <g id="svg_7"/>
  <g id="svg_8"/>
  <g id="svg_9"/>
  <g id="svg_10"/>
  <g id="svg_11"/>
  <g id="svg_12"/>
  <g id="svg_13"/>
  <g id="svg_14"/>
  <g id="svg_15"/>
  <g id="svg_16"/>
  <g id="svg_17"/>
  <ellipse stroke="#000" ry="43.5" rx="43.5" id="svg_18" cy="131.594" cx="432.844" stroke-width="0" fill="#ff0f0f"/>
 </g>
</svg>